/* XPM */
static char * inter_xpm[] = {
"24 24 149 2",
"  	c None",
". 	c #D8DACE",
"+ 	c #D3D5D5",
"@ 	c #CBCDDB",
"# 	c #C2C4E0",
"$ 	c #B9BBE3",
"% 	c #DFE1C5",
"& 	c #DCDFCA",
"* 	c #D6D9CF",
"= 	c #D0D3D5",
"- 	c #C8CBDB",
"; 	c #BFC1E0",
"> 	c #B7B8E5",
", 	c #AEB0E5",
"' 	c #E1E5C5",
") 	c #DFE2C9",
"! 	c #DCDFCD",
"~ 	c #D6D8D2",
"{ 	c #CDD0D7",
"] 	c #C5C8DE",
"^ 	c #BBBEE3",
"/ 	c #B2B4E4",
"( 	c #A9AAE5",
"_ 	c #A1A3E6",
": 	c #E2E4CA",
"< 	c #DFE1CE",
"[ 	c #DBDDD1",
"} 	c #D3D6D6",
"| 	c #CCCEDB",
"1 	c #B6BAE4",
"2 	c #ADAFE6",
"3 	c #A4A6E6",
"4 	c #9B9EE4",
"5 	c #9495E0",
"6 	c #E1E3CF",
"7 	c #DFE2D0",
"8 	c #DCDFD2",
"9 	c #D8DAD7",
"0 	c #D1D3DB",
"a 	c #C7CADF",
"b 	c #BDC0E3",
"c 	c #B2B4E5",
"d 	c #A7AAE7",
"e 	c #9EA0E6",
"f 	c #9598E5",
"g 	c #8F91E1",
"h 	c #E0E2D7",
"i 	c #DDDFD7",
"j 	c #DADCD8",
"k 	c #D4D6DC",
"l 	c #CCCFDF",
"m 	c #C2C4E2",
"n 	c #B8BAE6",
"o 	c #ACAEE8",
"p 	c #A1A3E7",
"q 	c #989BE7",
"r 	c #8F90E3",
"s 	c #878AE0",
"t 	c #8385DD",
"u 	c #DCDEDE",
"v 	c #D9DCDD",
"w 	c #D6D8DF",
"x 	c #CFD2E2",
"y 	c #C7C9E4",
"z 	c #BCC0E6",
"A 	c #B1B3E9",
"B 	c #A6A8EA",
"C 	c #9B9DEA",
"D 	c #9093E7",
"E 	c #888AE5",
"F 	c #8284E2",
"G 	c #7C7EDE",
"H 	c #D7D9E3",
"I 	c #D3D6E3",
"J 	c #D0D2E4",
"K 	c #CACCE7",
"L 	c #C1C3E8",
"M 	c #B7B9EB",
"N 	c #ACAEEC",
"O 	c #9FA1EC",
"P 	c #9496EC",
"Q 	c #8A8CEA",
"R 	c #8283E7",
"S 	c #7B7EE4",
"T 	c #7678E0",
"U 	c #D1D3EA",
"V 	c #CECFE8",
"W 	c #C9CBEA",
"X 	c #C2C4EA",
"Y 	c #BABCEC",
"Z 	c #AFB2EE",
"` 	c #A4A7EE",
" .	c #989AED",
"..	c #8C90ED",
"+.	c #8486EA",
"@.	c #7B7CE7",
"#.	c #7577E5",
"$.	c #7072E3",
"%.	c #C9CBEC",
"&.	c #C6C9ED",
"*.	c #C2C4ED",
"=.	c #BBBDEE",
"-.	c #B3B5EF",
";.	c #A8AAEF",
">.	c #9D9EF0",
",.	c #9192EF",
"'.	c #8688EF",
").	c #7D7FEC",
"!.	c #7576E9",
"~.	c #6E71E6",
"{.	c #BEC1EF",
"].	c #B9BBF0",
"^.	c #B3B4F0",
"/.	c #A9ABF0",
"(.	c #9FA2F1",
"_.	c #9596F1",
":.	c #8A8CF1",
"<.	c #7F81EE",
"[.	c #7578ED",
"}.	c #6F70E9",
"|.	c #696AE6",
"1.	c #B7B9F2",
"2.	c #B1B2F2",
"3.	c #AAADF2",
"4.	c #A2A4F1",
"5.	c #979AF0",
"6.	c #8E8FF0",
"7.	c #8384EF",
"8.	c #797BEF",
"9.	c #7071ED",
"0.	c #696BEC",
"a.	c #6365E7",
"b.	c #A9A9EF",
"c.	c #A2A4F0",
"d.	c #9A9BF1",
"e.	c #9091F0",
"f.	c #8788F0",
"g.	c #7C7EF0",
"h.	c #7275EF",
"i.	c #6A6DED",
"j.	c #6466EA",
"k.	c #9A9CF0",
"l.	c #9293EE",
"m.	c #8A8BEF",
"n.	c #8081EF",
"o.	c #7678ED",
"p.	c #6E70EE",
"q.	c #6769EB",
"r.	c #7B7BED",
"                                                ",
"                                                ",
"                                                ",
"                                                ",
"                                                ",
"                    . + @ # $                   ",
"                % & * = - ; > ,                 ",
"              ' ) ! ~ { ] ^ / ( _               ",
"              : < [ } | # 1 2 3 4 5             ",
"            6 7 8 9 0 a b c d e f g             ",
"            h i j k l m n o p q r s t           ",
"            u v w x y z A B C D E F G           ",
"            H I J K L M N O P Q R S T           ",
"            U V W X Y Z `  ...+.@.#.$.          ",
"            %.&.*.=.-.;.>.,.'.).!.~.            ",
"              {.].^./.(._.:.<.[.}.|.            ",
"              1.2.3.4.5.6.7.8.9.0.a.            ",
"                b.c.d.e.f.g.h.i.j.              ",
"                  k.l.m.n.o.p.q.                ",
"                        r.                      ",
"                                                ",
"                                                ",
"                                                ",
"                                                "};
