/* XPM */
static char * logo_xpm[] = {
"115 30 2 1",
" 	c None",
".	c #000000",
"                                                                                                                   ",
"                                                                                                                   ",
"                                                                                                                   ",
"                                                                                                                   ",
"                                                                                                                   ",
"                                                                                                                   ",
"                                                                                                                   ",
"                                                                                                                   ",
"                                                                                                                   ",
"                                                                                                                   ",
"                                                                                                                   ",
"                                                                                                                   ",
"   ........  ..                              ....                                  ..          ....    ......      ",
"      ..     ..                             ..  ..                                 ..         ..  ..   ..   ..     ",
"      ..     ..                            ..    ..                                ..        ..    ..  ..    ..    ",
"      ..     ..                            ..                                      ..        ..    ..  ..    ..    ",
"      ..     ..                            ..                                      ..              ..  ..    ..    ",
"      ..     .. ...      ....              ..        .. ....     .....   .. ...    .. ...          ..  ..    ..    ",
"      ..     ...  ..    ..  ..             ..  ....   ...  ..   ..   ..  ...  ..   ...  ..        ..   ..    ..    ",
"      ..     ..    ..  ..    ..            ..    ..   ..             ..  ..    ..  ..    ..     ...    ..    ..    ",
"      ..     ..    ..  ........            ..    ..   ..        .......  ..    ..  ..    ..    ..      ..    ..    ",
"      ..     ..    ..  ..                  ..    ..   ..       ..    ..  ..    ..  ..    ..   ..       ..    ..    ",
"      ..     ..    ..  ..                  ..    ..   ..       ..    ..  ..    ..  ..    ..  ..        ..    ..    ",
"      ..     ..    ..   ..   ..             ..  ...   ..       ..    ..  ...  ..   ..    ..  ..        ..   ..     ",
"      ..     ..    ..    .....               .... .   ..        ..... .  .. ...    ..    ..  ........  ......      ",
"                                                                         ..                                        ",
"                                                                         ..                                        ",
"                                                                         ..                                        ",
"                                                                         ..                                        ",
"                                                                                                                   "};
