/* XPM */
static char * pal_xpm[] = {
"24 24 5 1",
" 	c None",
".	c #949194",
"+	c #000000",
"@	c #DEDADE",
"#	c #FFFFFF",
"                        ",
"                        ",
"                        ",
"                        ",
"    .................   ",
"    +++....@@@@@@@@##   ",
"    ++.+..@.@@@@@@#@#   ",
"    +++....@@@@@@@@##   ",
"    ++.+..@.@@@@@@#@#   ",
"    +++....@@@@@@@@##   ",
"    ++.+..@.@@@@@@#@#   ",
"    +++....@@@@@@@@##   ",
"    ++.+..@.@@@@@@#@#   ",
"    +++....@@@@@@@@##   ",
"    ++.+..@.@@@@@@#@#   ",
"    +++....@@@@@@@@##   ",
"    ++.+..@.@@@@@@#@#   ",
"    +++....@@@@@@@@##   ",
"    ++++..@.@@@@@@#@#   ",
"    .................   ",
"                        ",
"                        ",
"                        ",
"                        "};
