/* XPM */
static char * trech_xpm[] = {
"24 24 2 1",
" 	c None",
".	c #000000",
"                        ",
"                        ",
"                  .   . ",
"                   . .  ",
"                  ..... ",
"                   . .  ",
"           .      .   . ",
"    ..    ..    .       ",
"     ..   ..    .       ",
"     ..   ..   ..       ",
"     ..   ..   .        ",
"     ..  ..   ..        ",
"     ..  ..  ..         ",
"     ..  ..  ..         ",
"     ... .. ..          ",
"      .......           ",
"        ..              ",
"        ..              ",
"       ..               ",
"       ..               ",
"       .                ",
"                        ",
"                        ",
"                        "};
