/* XPM */
static char * zoomout_xpm[] = {
"24 24 38 1",
" 	c None",
".	c #7B7D7A",
"+	c #010300",
"@	c #000000",
"#	c #080808",
"$	c #7C7C7C",
"%	c #020106",
"&	c #000100",
"*	c #020202",
"=	c #000004",
"-	c #818086",
";	c #F0F2F1",
">	c #FEFFFD",
",	c #7B7B7B",
"'	c #7A7B76",
")	c #F3F2F8",
"!	c #FAFCFB",
"~	c #FFFEFF",
"{	c #030400",
"]	c #090909",
"^	c #010000",
"/	c #7A7A7A",
"(	c #797874",
"_	c #110E09",
":	c #7A787B",
"<	c #797979",
"[	c #060606",
"}	c #777777",
"|	c #807F7D",
"1	c #777779",
"2	c #787878",
"3	c #020003",
"4	c #010101",
"5	c #7E7E80",
"6	c #000002",
"7	c #040406",
"8	c #040404",
"9	c #737373",
"                        ",
"                        ",
"                        ",
"                        ",
"                        ",
"        .+@#@$          ",
"       %&    @*         ",
"      =-;>    ,@        ",
"     '=)!      @$       ",
"     & ~        @       ",
"     { @@@@@@@@ ]       ",
"     & @@@@@@@@ @       ",
"     ^       /  @       ",
"     (_  :  </ [}       ",
"      ^|  122 2*        ",
"       ^3    @4@@       ",
"        5674@, @8@      ",
"                @4@     ",
"                 @@[    ",
"                  *9    ",
"                        ",
"                        ",
"                        ",
"                        "};
